<svg width="32" height="32" viewBox="0 0 32 32" fill="none" xmlns="http://www.w3.org/2000/svg">
  <defs>
    <linearGradient id="bg-gradient" x1="0%" y1="0%" x2="100%" y2="100%">
      <stop offset="0%" style="stop-color:#007AFF;stop-opacity:1" />
      <stop offset="100%" style="stop-color:#0051D5;stop-opacity:1" />
    </linearGradient>
    <filter id="shadow" x="-50%" y="-50%" width="200%" height="200%">
      <feDropShadow dx="0" dy="1" stdDeviation="1" flood-opacity="0.1"/>
    </filter>
  </defs>
  <rect width="32" height="32" rx="8" fill="url(#bg-gradient)"/>
  <g filter="url(#shadow)">
    <path d="M16 7C13.2386 7 11 9.23858 11 12V14.5C11 14.7761 11.2239 15 11.5 15H12V14H11.5C11.5 14 11.5 14 11.5 14V12C11.5 9.51472 13.5147 7.5 16 7.5C18.4853 7.5 20.5 9.51472 20.5 12V14H20V15H20.5C20.7761 15 21 14.7761 21 14.5V12C21 9.23858 18.7614 7 16 7Z" fill="white" opacity="0.9"/>
    <rect x="10" y="14" width="12" height="10" rx="2" fill="white"/>
    <circle cx="16" cy="19" r="1.5" fill="#007AFF"/>
    <rect x="15.5" y="19" width="1" height="3" rx="0.5" fill="#007AFF"/>
  </g>
</svg>